<mxfile host="app.diagrams.net" modified="2020-06-10T12:02:05.651Z" agent="5.0 (Windows)" etag="qCk3IG-2rNuBGdLhMXzv" version="13.2.1" type="github">
  <diagram id="ftZ6NkSWwYy79V5Z8KAn" name="Page-1">
    <mxGraphModel dx="1168" dy="915" grid="1" gridSize="10" guides="1" tooltips="1" connect="1" arrows="1" fold="1" page="1" pageScale="1" pageWidth="850" pageHeight="1100" math="0" shadow="0">
      <root>
        <mxCell id="0" />
        <mxCell id="1" parent="0" />
        <mxCell id="Y7Dolzlg4p2LnnSjJEpa-9" style="edgeStyle=orthogonalEdgeStyle;rounded=0;orthogonalLoop=1;jettySize=auto;html=1;exitX=0.5;exitY=0;exitDx=0;exitDy=0;entryX=0.5;entryY=1;entryDx=0;entryDy=0;" edge="1" parent="1" source="Y7Dolzlg4p2LnnSjJEpa-1" target="Y7Dolzlg4p2LnnSjJEpa-8">
          <mxGeometry relative="1" as="geometry" />
        </mxCell>
        <mxCell id="Y7Dolzlg4p2LnnSjJEpa-1" value="&lt;font style=&quot;font-size: 24px&quot;&gt;A&lt;/font&gt;" style="rounded=0;whiteSpace=wrap;html=1;fillColor=#d5e8d4;strokeColor=#82b366;" vertex="1" parent="1">
          <mxGeometry x="60" y="140" width="80" height="40" as="geometry" />
        </mxCell>
        <mxCell id="Y7Dolzlg4p2LnnSjJEpa-5" style="edgeStyle=orthogonalEdgeStyle;rounded=0;orthogonalLoop=1;jettySize=auto;html=1;exitX=0.5;exitY=0;exitDx=0;exitDy=0;entryX=0.5;entryY=1;entryDx=0;entryDy=0;" edge="1" parent="1" source="Y7Dolzlg4p2LnnSjJEpa-2" target="Y7Dolzlg4p2LnnSjJEpa-1">
          <mxGeometry relative="1" as="geometry" />
        </mxCell>
        <mxCell id="Y7Dolzlg4p2LnnSjJEpa-2" value="&lt;font style=&quot;font-size: 20px&quot;&gt;x&lt;sub&gt;t&lt;/sub&gt;&lt;/font&gt;" style="ellipse;whiteSpace=wrap;html=1;aspect=fixed;fillColor=#dae8fc;strokeColor=#6c8ebf;" vertex="1" parent="1">
          <mxGeometry x="80" y="210" width="40" height="40" as="geometry" />
        </mxCell>
        <mxCell id="Y7Dolzlg4p2LnnSjJEpa-6" style="edgeStyle=orthogonalEdgeStyle;rounded=0;orthogonalLoop=1;jettySize=auto;html=1;exitX=1;exitY=0.5;exitDx=0;exitDy=0;entryX=0;entryY=0.5;entryDx=0;entryDy=0;jumpStyle=gap;jumpSize=10;" edge="1" parent="1" source="Y7Dolzlg4p2LnnSjJEpa-1" target="Y7Dolzlg4p2LnnSjJEpa-1">
          <mxGeometry relative="1" as="geometry">
            <Array as="points">
              <mxPoint x="160" y="160" />
              <mxPoint x="160" y="120" />
              <mxPoint x="40" y="120" />
              <mxPoint x="40" y="160" />
            </Array>
          </mxGeometry>
        </mxCell>
        <mxCell id="Y7Dolzlg4p2LnnSjJEpa-8" value="&lt;font style=&quot;font-size: 20px&quot;&gt;h&lt;sub&gt;t&lt;/sub&gt;&lt;/font&gt;" style="ellipse;whiteSpace=wrap;html=1;aspect=fixed;fillColor=#f8cecc;strokeColor=#b85450;" vertex="1" parent="1">
          <mxGeometry x="80" y="50" width="40" height="40" as="geometry" />
        </mxCell>
        <mxCell id="Y7Dolzlg4p2LnnSjJEpa-10" value="" style="endArrow=none;html=1;" edge="1" parent="1">
          <mxGeometry width="50" height="50" relative="1" as="geometry">
            <mxPoint x="200" y="150" as="sourcePoint" />
            <mxPoint x="220" y="150" as="targetPoint" />
          </mxGeometry>
        </mxCell>
        <mxCell id="Y7Dolzlg4p2LnnSjJEpa-11" value="" style="endArrow=none;html=1;" edge="1" parent="1">
          <mxGeometry width="50" height="50" relative="1" as="geometry">
            <mxPoint x="200" y="159.66" as="sourcePoint" />
            <mxPoint x="220" y="159.66" as="targetPoint" />
          </mxGeometry>
        </mxCell>
        <mxCell id="Y7Dolzlg4p2LnnSjJEpa-12" style="edgeStyle=orthogonalEdgeStyle;rounded=0;orthogonalLoop=1;jettySize=auto;html=1;exitX=0.5;exitY=0;exitDx=0;exitDy=0;entryX=0.5;entryY=1;entryDx=0;entryDy=0;" edge="1" parent="1" source="Y7Dolzlg4p2LnnSjJEpa-13" target="Y7Dolzlg4p2LnnSjJEpa-17">
          <mxGeometry relative="1" as="geometry" />
        </mxCell>
        <mxCell id="Y7Dolzlg4p2LnnSjJEpa-33" style="edgeStyle=orthogonalEdgeStyle;rounded=0;jumpStyle=gap;jumpSize=10;orthogonalLoop=1;jettySize=auto;html=1;exitX=1;exitY=0.5;exitDx=0;exitDy=0;entryX=0;entryY=0.5;entryDx=0;entryDy=0;" edge="1" parent="1" source="Y7Dolzlg4p2LnnSjJEpa-13" target="Y7Dolzlg4p2LnnSjJEpa-19">
          <mxGeometry relative="1" as="geometry" />
        </mxCell>
        <mxCell id="Y7Dolzlg4p2LnnSjJEpa-13" value="&lt;font style=&quot;font-size: 24px&quot;&gt;A&lt;/font&gt;" style="rounded=0;whiteSpace=wrap;html=1;fillColor=#d5e8d4;strokeColor=#82b366;" vertex="1" parent="1">
          <mxGeometry x="259.97" y="140" width="80" height="40" as="geometry" />
        </mxCell>
        <mxCell id="Y7Dolzlg4p2LnnSjJEpa-14" style="edgeStyle=orthogonalEdgeStyle;rounded=0;orthogonalLoop=1;jettySize=auto;html=1;exitX=0.5;exitY=0;exitDx=0;exitDy=0;entryX=0.5;entryY=1;entryDx=0;entryDy=0;" edge="1" parent="1" source="Y7Dolzlg4p2LnnSjJEpa-15" target="Y7Dolzlg4p2LnnSjJEpa-13">
          <mxGeometry relative="1" as="geometry" />
        </mxCell>
        <mxCell id="Y7Dolzlg4p2LnnSjJEpa-15" value="&lt;font style=&quot;font-size: 20px&quot;&gt;x&lt;sub&gt;0&lt;/sub&gt;&lt;/font&gt;" style="ellipse;whiteSpace=wrap;html=1;aspect=fixed;fillColor=#dae8fc;strokeColor=#6c8ebf;" vertex="1" parent="1">
          <mxGeometry x="279.97" y="210" width="40" height="40" as="geometry" />
        </mxCell>
        <mxCell id="Y7Dolzlg4p2LnnSjJEpa-17" value="&lt;font style=&quot;font-size: 20px&quot;&gt;h&lt;sub&gt;0&lt;/sub&gt;&lt;/font&gt;" style="ellipse;whiteSpace=wrap;html=1;aspect=fixed;fillColor=#f8cecc;strokeColor=#b85450;" vertex="1" parent="1">
          <mxGeometry x="279.97" y="50" width="40" height="40" as="geometry" />
        </mxCell>
        <mxCell id="Y7Dolzlg4p2LnnSjJEpa-18" style="edgeStyle=orthogonalEdgeStyle;rounded=0;orthogonalLoop=1;jettySize=auto;html=1;exitX=0.5;exitY=0;exitDx=0;exitDy=0;entryX=0.5;entryY=1;entryDx=0;entryDy=0;" edge="1" parent="1" source="Y7Dolzlg4p2LnnSjJEpa-19" target="Y7Dolzlg4p2LnnSjJEpa-22">
          <mxGeometry relative="1" as="geometry" />
        </mxCell>
        <mxCell id="Y7Dolzlg4p2LnnSjJEpa-34" style="edgeStyle=orthogonalEdgeStyle;rounded=0;jumpStyle=gap;jumpSize=10;orthogonalLoop=1;jettySize=auto;html=1;exitX=1;exitY=0.5;exitDx=0;exitDy=0;entryX=0;entryY=0.5;entryDx=0;entryDy=0;" edge="1" parent="1" source="Y7Dolzlg4p2LnnSjJEpa-19" target="Y7Dolzlg4p2LnnSjJEpa-24">
          <mxGeometry relative="1" as="geometry" />
        </mxCell>
        <mxCell id="Y7Dolzlg4p2LnnSjJEpa-19" value="&lt;font style=&quot;font-size: 24px&quot;&gt;A&lt;/font&gt;" style="rounded=0;whiteSpace=wrap;html=1;fillColor=#d5e8d4;strokeColor=#82b366;" vertex="1" parent="1">
          <mxGeometry x="380" y="140" width="80" height="40" as="geometry" />
        </mxCell>
        <mxCell id="Y7Dolzlg4p2LnnSjJEpa-20" style="edgeStyle=orthogonalEdgeStyle;rounded=0;orthogonalLoop=1;jettySize=auto;html=1;exitX=0.5;exitY=0;exitDx=0;exitDy=0;entryX=0.5;entryY=1;entryDx=0;entryDy=0;" edge="1" parent="1" source="Y7Dolzlg4p2LnnSjJEpa-21" target="Y7Dolzlg4p2LnnSjJEpa-19">
          <mxGeometry relative="1" as="geometry" />
        </mxCell>
        <mxCell id="Y7Dolzlg4p2LnnSjJEpa-21" value="&lt;font style=&quot;font-size: 20px&quot;&gt;x&lt;sub&gt;1&lt;/sub&gt;&lt;/font&gt;" style="ellipse;whiteSpace=wrap;html=1;aspect=fixed;fillColor=#dae8fc;strokeColor=#6c8ebf;" vertex="1" parent="1">
          <mxGeometry x="400" y="210" width="40" height="40" as="geometry" />
        </mxCell>
        <mxCell id="Y7Dolzlg4p2LnnSjJEpa-22" value="&lt;font style=&quot;font-size: 20px&quot;&gt;h&lt;sub&gt;1&lt;/sub&gt;&lt;/font&gt;" style="ellipse;whiteSpace=wrap;html=1;aspect=fixed;fillColor=#f8cecc;strokeColor=#b85450;" vertex="1" parent="1">
          <mxGeometry x="400" y="50" width="40" height="40" as="geometry" />
        </mxCell>
        <mxCell id="Y7Dolzlg4p2LnnSjJEpa-23" style="edgeStyle=orthogonalEdgeStyle;rounded=0;orthogonalLoop=1;jettySize=auto;html=1;exitX=0.5;exitY=0;exitDx=0;exitDy=0;entryX=0.5;entryY=1;entryDx=0;entryDy=0;" edge="1" parent="1" source="Y7Dolzlg4p2LnnSjJEpa-24" target="Y7Dolzlg4p2LnnSjJEpa-27">
          <mxGeometry relative="1" as="geometry" />
        </mxCell>
        <mxCell id="Y7Dolzlg4p2LnnSjJEpa-35" style="edgeStyle=orthogonalEdgeStyle;rounded=0;jumpStyle=gap;jumpSize=10;orthogonalLoop=1;jettySize=auto;html=1;exitX=1;exitY=0.5;exitDx=0;exitDy=0;entryX=0;entryY=0.5;entryDx=0;entryDy=0;" edge="1" parent="1" source="Y7Dolzlg4p2LnnSjJEpa-24" target="Y7Dolzlg4p2LnnSjJEpa-29">
          <mxGeometry relative="1" as="geometry" />
        </mxCell>
        <mxCell id="Y7Dolzlg4p2LnnSjJEpa-24" value="&lt;font style=&quot;font-size: 24px&quot;&gt;A&lt;/font&gt;" style="rounded=0;whiteSpace=wrap;html=1;fillColor=#d5e8d4;strokeColor=#82b366;" vertex="1" parent="1">
          <mxGeometry x="500" y="140" width="80" height="40" as="geometry" />
        </mxCell>
        <mxCell id="Y7Dolzlg4p2LnnSjJEpa-25" style="edgeStyle=orthogonalEdgeStyle;rounded=0;orthogonalLoop=1;jettySize=auto;html=1;exitX=0.5;exitY=0;exitDx=0;exitDy=0;entryX=0.5;entryY=1;entryDx=0;entryDy=0;" edge="1" parent="1" source="Y7Dolzlg4p2LnnSjJEpa-26" target="Y7Dolzlg4p2LnnSjJEpa-24">
          <mxGeometry relative="1" as="geometry" />
        </mxCell>
        <mxCell id="Y7Dolzlg4p2LnnSjJEpa-26" value="&lt;font style=&quot;font-size: 20px&quot;&gt;x&lt;sub&gt;2&lt;/sub&gt;&lt;/font&gt;" style="ellipse;whiteSpace=wrap;html=1;aspect=fixed;fillColor=#dae8fc;strokeColor=#6c8ebf;" vertex="1" parent="1">
          <mxGeometry x="520" y="210" width="40" height="40" as="geometry" />
        </mxCell>
        <mxCell id="Y7Dolzlg4p2LnnSjJEpa-27" value="&lt;font style=&quot;font-size: 20px&quot;&gt;h&lt;sub&gt;2&lt;/sub&gt;&lt;/font&gt;" style="ellipse;whiteSpace=wrap;html=1;aspect=fixed;fillColor=#f8cecc;strokeColor=#b85450;" vertex="1" parent="1">
          <mxGeometry x="520" y="50" width="40" height="40" as="geometry" />
        </mxCell>
        <mxCell id="Y7Dolzlg4p2LnnSjJEpa-28" style="edgeStyle=orthogonalEdgeStyle;rounded=0;orthogonalLoop=1;jettySize=auto;html=1;exitX=0.5;exitY=0;exitDx=0;exitDy=0;entryX=0.5;entryY=1;entryDx=0;entryDy=0;" edge="1" parent="1" source="Y7Dolzlg4p2LnnSjJEpa-29" target="Y7Dolzlg4p2LnnSjJEpa-32">
          <mxGeometry relative="1" as="geometry" />
        </mxCell>
        <mxCell id="Y7Dolzlg4p2LnnSjJEpa-29" value="&lt;font style=&quot;font-size: 24px&quot;&gt;A&lt;/font&gt;" style="rounded=0;whiteSpace=wrap;html=1;fillColor=#d5e8d4;strokeColor=#82b366;" vertex="1" parent="1">
          <mxGeometry x="740" y="140" width="80" height="40" as="geometry" />
        </mxCell>
        <mxCell id="Y7Dolzlg4p2LnnSjJEpa-30" style="edgeStyle=orthogonalEdgeStyle;rounded=0;orthogonalLoop=1;jettySize=auto;html=1;exitX=0.5;exitY=0;exitDx=0;exitDy=0;entryX=0.5;entryY=1;entryDx=0;entryDy=0;" edge="1" parent="1" source="Y7Dolzlg4p2LnnSjJEpa-31" target="Y7Dolzlg4p2LnnSjJEpa-29">
          <mxGeometry relative="1" as="geometry" />
        </mxCell>
        <mxCell id="Y7Dolzlg4p2LnnSjJEpa-31" value="&lt;font style=&quot;font-size: 20px&quot;&gt;x&lt;sub&gt;t&lt;/sub&gt;&lt;/font&gt;" style="ellipse;whiteSpace=wrap;html=1;aspect=fixed;fillColor=#dae8fc;strokeColor=#6c8ebf;" vertex="1" parent="1">
          <mxGeometry x="760" y="210" width="40" height="40" as="geometry" />
        </mxCell>
        <mxCell id="Y7Dolzlg4p2LnnSjJEpa-32" value="&lt;font style=&quot;font-size: 20px&quot;&gt;h&lt;sub&gt;t&lt;/sub&gt;&lt;/font&gt;" style="ellipse;whiteSpace=wrap;html=1;aspect=fixed;fillColor=#f8cecc;strokeColor=#b85450;" vertex="1" parent="1">
          <mxGeometry x="760" y="50" width="40" height="40" as="geometry" />
        </mxCell>
        <mxCell id="Y7Dolzlg4p2LnnSjJEpa-36" value="&lt;font style=&quot;font-size: 24px&quot;&gt;...&lt;/font&gt;" style="text;html=1;align=center;verticalAlign=middle;resizable=0;points=[];autosize=1;" vertex="1" parent="1">
          <mxGeometry x="639" y="220" width="40" height="20" as="geometry" />
        </mxCell>
      </root>
    </mxGraphModel>
  </diagram>
</mxfile>
